<?xml version="1.0"?>
<svg xmlns="http://www.w3.org/2000/svg" viewBox="0 0 168.51 167.9">
<title>phoenix-green</title>
<g id="phoenix" data-name="phoenix">
    <g id="phoenix-body">
        <path id="phoenix-body" d="M117.74,47.91c.17-.7.3-1.41.4-2.12a2.93,2.93,0,0,1-1.58.4,3.33,3.33,0,0,0,1,1.57Zm-5.19,6.86a3.59,3.59,0,0,1-3.52.15,2.26,2.26,0,0,1-.26-.16,3.62,3.62,0,0,0,1.73,3.47,3.4,3.4,0,0,0,3.82-.65A3.68,3.68,0,0,1,112.55,54.77Zm5.75,1.6A3.73,3.73,0,0,1,116.51,54a3.59,3.59,0,0,1-3.35.49,2.91,2.91,0,0,0,5.14,1.89Zm-9,5.74a3.91,3.91,0,0,0,2.14-.21A3.56,3.56,0,0,1,110,59.13a3.78,3.78,0,0,1-3.1-.69,2.68,2.68,0,0,0,.26,2.24A3.23,3.23,0,0,0,109.27,62.11Zm6.44-1.44a3.44,3.44,0,0,1-1.42-2.26,4,4,0,0,1-3.7.52,2.8,2.8,0,0,0,5.12,1.74Zm-7.88-8.49a2.9,2.9,0,0,0,.61,1.47,2.84,2.84,0,0,0,4,.44,3.58,3.58,0,0,1-1.49-2.53,3.16,3.16,0,0,1-1.64.45,3,3,0,0,1-1.2-.27Zm3.92-1-.21-.11a2.87,2.87,0,0,0,4.93,2.1,3.62,3.62,0,0,1-1.74-2.4A3,3,0,0,1,111.75,51.21Zm-5.37,3.95-.23-.09a3,3,0,0,0,3.67,3.46A4.34,4.34,0,0,1,108.14,55,2.62,2.62,0,0,1,106.38,55.16Zm-.23-1-.14.12a2.07,2.07,0,0,0,.57.3,2.23,2.23,0,0,0,1.61-.29,3.69,3.69,0,0,1-.84-1.43A9.25,9.25,0,0,1,106.15,54.15Zm12.14-10.47V43a2.42,2.42,0,0,1-.47,0A1.83,1.83,0,0,0,118.29,43.68Zm-9.26,0a9.85,9.85,0,0,1,.27,1.07,2.73,2.73,0,0,0,1.43-.73,2.33,2.33,0,0,1-.5-.77A8.58,8.58,0,0,1,109,43.67Zm-2.8-2.7c-.22.26-.45.52-.68.77a5.1,5.1,0,0,0,1-.32l1.19-.55.6,1.16c.12.23.22.46.33.68a9.16,9.16,0,0,0,2.8-5.06A9.41,9.41,0,0,1,106.23,41Zm-2.6,20a3.73,3.73,0,0,1-.82-3.11,2.21,2.21,0,0,1-1.75-.78l-.93.3a3.65,3.65,0,0,0,3.5,3.59Zm13.46-18.71a.91.91,0,0,0,.22.11,1.74,1.74,0,0,0,1,.06,13,13,0,0,0-.45-2.64A9.62,9.62,0,0,1,117.09,42.23Zm-7.7,3.12a8.56,8.56,0,0,1,.07,1.82,2.52,2.52,0,0,0,.59.39,2.39,2.39,0,0,0,2.55-.46l-.22-.12-.6.36.34-.52a3.23,3.23,0,0,1-1.34-2A3.49,3.49,0,0,1,109.39,45.35Zm4.83-2.63c.09-.31.16-.62.22-.93a2.51,2.51,0,0,1-.66-.1A1.69,1.69,0,0,0,114.22,42.72Zm-.7,3.58-.5.3h0a2.56,2.56,0,0,0,2.56-.66,2.68,2.68,0,0,1-.83-.59A8.34,8.34,0,0,1,113.52,46.3Zm-.09-5.46a1.75,1.75,0,0,0,.35.2,1.82,1.82,0,0,0,.76.13,10.72,10.72,0,0,0,.08-2.12A8.32,8.32,0,0,1,113.43,40.84Zm-1.29,1.26a10.09,10.09,0,0,1-1.35.88,1.7,1.7,0,0,0,.78.91,1.76,1.76,0,0,0,1.37.08,1.82,1.82,0,0,0,.94-.72l-.1-.1a2.25,2.25,0,0,1-.61-1.31A2.79,2.79,0,0,1,112.14,42.1Zm-9.7,14.39c-.24.12-.49.22-.75.32a1.6,1.6,0,0,0,1.17.39A3.4,3.4,0,0,1,102.44,56.49ZM119,49a3.62,3.62,0,0,0,1,1.87l.08.07.43-1.18c.16-.43.29-.86.42-1.28a2.77,2.77,0,0,1-1.16.49A2.7,2.7,0,0,1,119,49Zm-.26-.67a2.53,2.53,0,0,0,1,0,2.19,2.19,0,0,0,1.54-1.13h0a3,3,0,0,1-1.3-.63A10.4,10.4,0,0,1,118.72,48.34Zm2.45-7.72a12.89,12.89,0,0,1-.11,2.24,2.74,2.74,0,0,0,.5.07A11.39,11.39,0,0,0,121.17,40.62Zm-5.88,9.78a2.92,2.92,0,0,0,5.22,1.51c-.14-.07-.28-.14-.41-.22l-.44.5.22-.64-.28-.22a4,4,0,0,1-1.11-1.8A3.51,3.51,0,0,1,115.29,50.4Zm-8.44-27a5.64,5.64,0,0,0,2.62-2.64c.6-1.1,1-2.3,1.67-3.39a10.19,10.19,0,0,1,8-4.94,10.35,10.35,0,0,0-6,.83,9.87,9.87,0,0,0-3.87,3.87c-.4.74-.71,1.52-1.15,2.24A3.76,3.76,0,0,1,106.2,21a2.58,2.58,0,0,1-2.8-.82,2.74,2.74,0,0,1-.36-3,3.69,3.69,0,0,0,3.81,6.2Zm11.89-10.15a7.65,7.65,0,0,0-4.68,2.3,8.2,8.2,0,0,0-1.87,4.31,26.46,26.46,0,0,0-.25,4.95,4.68,4.68,0,0,0,2-1.59,18.59,18.59,0,0,0,1.6-3.54,9.79,9.79,0,0,1,9.1-5.6A13.25,13.25,0,0,0,118.74,13.25Zm-5.39,34.07a2.88,2.88,0,0,0,1.93,2.44,2.77,2.77,0,0,0,2-.17l.27-1.05a4.37,4.37,0,0,1-.44-.31A4,4,0,0,1,116,46.46,3.22,3.22,0,0,1,113.35,47.32Zm-8.32-31a3.31,3.31,0,0,0,2.28,0,6.71,6.71,0,0,0,2-1.19c.61-.48,1.19-1,1.81-1.47a10.65,10.65,0,0,1,5.72-2.07A11.69,11.69,0,0,1,122.74,13,11.89,11.89,0,0,0,115,11a13.25,13.25,0,0,0-6.67,2.7,10.39,10.39,0,0,1-1.25.93,2.49,2.49,0,0,1-1.49.4,1.42,1.42,0,0,1-1.22-.84c-.2-.49-.06-1.24.44-1.4a1.66,1.66,0,0,0-1.17,1.79A2.2,2.2,0,0,0,105,16.28Zm2,45.25a4,4,0,0,1-.4-.52,3.37,3.37,0,0,1-.39-2.5,3.47,3.47,0,0,1-2.38-.44,2.45,2.45,0,0,1-.37-.26,3.12,3.12,0,0,0,.78,2.91c.15-.2.29-.4.43-.62-.11.24-.21.47-.33.7A3.15,3.15,0,0,0,107,61.53ZM120.15,46a2.31,2.31,0,0,0,1.14.61h.07a16.27,16.27,0,0,0,.23-2.51l-.25-.32a2.11,2.11,0,0,1-.59.52A10.41,10.41,0,0,1,120.15,46Zm-10.81,2.32a1.56,1.56,0,0,0,.47-.22,2.32,2.32,0,0,1-.41-.22Zm1.27,0a2.3,2.3,0,0,0,4,1.78,3.49,3.49,0,0,1-1.77-2.35A3.14,3.14,0,0,1,110.61,48.34Zm2.52-3.79a2.43,2.43,0,0,1-1.76-.07,2.62,2.62,0,0,0,1.08,1.84l.44-.66a9.59,9.59,0,0,0,.74-1.33A2.81,2.81,0,0,1,113.13,44.55Zm-4.74,6.65a2.44,2.44,0,0,0,2.62-.48,3.06,3.06,0,0,1-1-2,2.36,2.36,0,0,1-.79.25A10.75,10.75,0,0,1,108.39,51.2ZM96.72,63.4a3.49,3.49,0,0,0-.44,2.85A24.61,24.61,0,0,0,99.16,65,3.94,3.94,0,0,1,96.72,63.4Zm6.87-1.85a4.39,4.39,0,0,1-3-1.38l0-.06a3.76,3.76,0,0,0-.37,2.59,3.34,3.34,0,0,0,.63,1.28A13.54,13.54,0,0,0,103.59,61.55Zm-3.26,2.78a3.93,3.93,0,0,1-.72-1.48,4.31,4.31,0,0,1,.28-2.72,3.27,3.27,0,0,1-2.11-.56,3.47,3.47,0,0,1-.37-.3,3.23,3.23,0,0,0-.7,2.26,3.18,3.18,0,0,0,3.42,2.92Zm5.19-9.66A14.55,14.55,0,0,1,103,56.24a2.94,2.94,0,0,0,1.14,1.3,2.89,2.89,0,0,0,2.15.31,3.76,3.76,0,0,1-.71-3.12Zm-1,10a3.86,3.86,0,0,1-.82-2.78,15.19,15.19,0,0,1-2.26,2.61,3.08,3.08,0,0,0,.55.33A2.76,2.76,0,0,0,104.5,64.72Zm10.72-19.78a2,2,0,0,0,1,.58,2.2,2.2,0,0,0,2-.56,4.93,4.93,0,0,0,0-.54,2.43,2.43,0,0,1-1-1.18,3.1,3.1,0,0,1-1,.55A8,8,0,0,1,115.22,44.94ZM98.12,59.06a2.68,2.68,0,0,0,2,.42,4.53,4.53,0,0,1-.6-2c-.72.2-1.49.36-2.28.5A2.61,2.61,0,0,0,98.12,59.06Zm6.24,2.52a3.16,3.16,0,0,0,4.36,3.65,4.52,4.52,0,0,1-1.51-3.12A3.68,3.68,0,0,1,104.36,61.58Zm7.36.87a4.67,4.67,0,0,1-2.56.27,4.16,4.16,0,0,1-1.32-.51,3.86,3.86,0,0,0,1.75,2.91,3.78,3.78,0,0,0,2.39.51c.27-.16.54-.32.8-.49L113,65a3.45,3.45,0,0,1-.54-.54A3.62,3.62,0,0,1,111.72,62.45ZM105,65.25a4.28,4.28,0,0,0-.32,2.57,4.37,4.37,0,0,0,.39,1.1c1.07-.43,2.14-.88,3.19-1.37a3.81,3.81,0,0,1,.18-1.57A3.88,3.88,0,0,1,105,65.25ZM116.37,61a4.45,4.45,0,0,0,.16,1.2c.33-.33.66-.65,1-1a3.2,3.2,0,0,1-1-.16Zm-4,1.34a2.89,2.89,0,0,0,1.23,2.26A24.3,24.3,0,0,0,116,62.7a6.56,6.56,0,0,1-.25-1.15A3.53,3.53,0,0,1,112.33,62.37Zm-12.4,11a1.06,1.06,0,0,0-.7-.1,2.78,2.78,0,0,0-.69.22.74.74,0,0,1,.42.68,1.08,1.08,0,0,1,.69-.51.77.77,0,0,1,.64.28A.68.68,0,0,0,99.93,73.37Zm1,1.46a.83.83,0,0,1,.63.39.74.74,0,0,0-.25-.7,1.13,1.13,0,0,0-.72-.29,2.17,2.17,0,0,0-.76.13,1,1,0,0,1,.39.73A.87.87,0,0,1,101,74.83Zm3.28-9.29a3.46,3.46,0,0,1-2.51-.09A3.56,3.56,0,0,1,101,65l-.28.23a3.66,3.66,0,0,0,3.76,4l.07,0a5,5,0,0,1-.42-1.2A4.88,4.88,0,0,1,104.24,65.54Zm-2.66,10.19a1.52,1.52,0,0,0-.87-.07.71.71,0,0,1,.35.94.75.75,0,0,1,.56-.19.55.55,0,0,1,.29.31.76.76,0,0,1,0,.42.77.77,0,0,0,.22-.8A1,1,0,0,0,101.58,75.73Zm-1.52-10C95.85,69,90.88,70,86.37,72.3c-4.07,2.07-5.74,4.15-2,5.46a29.29,29.29,0,0,0,4.87,1.18c2.06.31,5.17.88,5.51,1.76.29.72.22,2.84,1.51,3.43a1,1,0,0,0,1.35-.41c.24-.63-.59-1.15-.86-.46-1.44-.77-.33-2.11.45-2.79,1-.92,1.15-2.24,2-3.22a1.53,1.53,0,0,1,.68-.46c.27-.07.45.17.74,0,.65-.31.08-1.07-.42-1.11-.94-.08-1.88,1.53-2.49,2.47.29-.53.39-1.15.64-1.71.13-.28.33-.74.62-.88s.59.16.87-.21c.59-.78-.44-1.14-1-.82a2.58,2.58,0,0,0-1.22,1.81,2.23,2.23,0,0,1,.26-1.32c.58-.16,1.07-.93.87-1.28-.77-.49-1.34.55-1.83,1.32-.57,1.06.26,2.46-.85,3.3-.58.43-1.43,0-2.14-.14a26.4,26.4,0,0,1-5.76-1.81,1.32,1.32,0,0,1-.64-.5c.19-1.81,7.78-3.38,15.68-6.3a4.24,4.24,0,0,1-1.9-1.1A4.29,4.29,0,0,1,100.06,65.7Zm25.81-47.93A5.28,5.28,0,0,1,127,15.26a8.44,8.44,0,0,0-9.89,4.6c-.44.94-.69,1.94-1.08,2.9a6.52,6.52,0,0,1-1.15,1.79,3.88,3.88,0,0,1-1.1.72,30.34,30.34,0,0,1-6.35,14.34,8.52,8.52,0,0,0,4.29-3.93l.82-1.47,0,1.69a10.11,10.11,0,0,1-2.07,6.21,8,8,0,0,0,3.9-5l.46-1.88.44,1.88a11.88,11.88,0,0,1-.55,7.07,8.37,8.37,0,0,0,2.21-6.64l-.31-2.46,1.18,2.19a14.49,14.49,0,0,1,1.21,9,12,12,0,0,0,.82-8.71L119.18,35l1.48,2.27a13.46,13.46,0,0,1,1.53,10,13.59,13.59,0,0,0,1.41-5.14c-.5-2.93-1.54-5.75-2.33-8.63a19.33,19.33,0,0,1-.72-9.14,7.54,7.54,0,0,0,4.94-1.16A5.33,5.33,0,0,0,128,19.82,5.39,5.39,0,0,1,125.87,17.77Zm-2.93,2.33a3.07,3.07,0,0,1-3.62-.44,3.24,3.24,0,0,1,3.63-2.8,2.81,2.81,0,0,1,.86.23A2.53,2.53,0,0,1,122.94,20.1Zm-.23-2a1,1,0,1,0-.57,1.22,1,1,0,0,0,.57-1.22Zm5.41-.74c.49-.2,1-.37,1.49-.52h0c1.9-.59,4.57-1.19,6.31-.15a2.47,2.47,0,0,0-1.26-1.08,6.45,6.45,0,0,0-2.19-.36c-1.49-.06-3.46,0-4.94,0a8.38,8.38,0,0,0-1,2.49,6.21,6.21,0,0,0,2.23,1.9,7.14,7.14,0,0,0,2.43-1.07,13.43,13.43,0,0,1,2.35-1.29,4,4,0,0,1,1.69-.27C133.26,15.87,129.9,16.76,128.12,17.33Zm-5.47,31a2.76,2.76,0,0,0,1,.6,20.45,20.45,0,0,0,.24-2.47,3.33,3.33,0,0,1-.46.36A12.55,12.55,0,0,1,122.65,48.3Zm-7.78,9.52a2.77,2.77,0,0,0,1.83,2.68,2.71,2.71,0,0,0,1.44.06c.38-.44.75-.9,1.1-1.37a4.58,4.58,0,0,1-.85-2A3.62,3.62,0,0,1,114.87,57.82ZM119,56.65a3.84,3.84,0,0,0,.66,2,23.17,23.17,0,0,0,1.24-2,3.06,3.06,0,0,1-.51.1A3.63,3.63,0,0,1,119,56.65Zm1.59-3.91a3.63,3.63,0,0,1-3.43.75s0,0-.07,0a3,3,0,0,0,4.25,2.43c.2-.39.39-.77.57-1.16A3.22,3.22,0,0,1,120.55,52.74Zm1.44-.57a2.62,2.62,0,0,1-.88-.06,2.55,2.55,0,0,0,1,2,19.94,19.94,0,0,0,.82-2.28,2.38,2.38,0,0,1-.73.27Zm-.69-1.94-.84,1a2.46,2.46,0,0,0,1.64.31,1.93,1.93,0,0,0,1.12-.68c.11-.44.21-.89.3-1.34a3.33,3.33,0,0,1-1.2-.68A11.64,11.64,0,0,1,121.3,50.23Zm-12.42,17c.69-.34,1.38-.68,2-1a4.19,4.19,0,0,1-1.65-.59A3.19,3.19,0,0,0,108.88,67.27ZM88.6,63.87A13.52,13.52,0,0,0,86.46,65a2.11,2.11,0,0,0,1.77.67A3.86,3.86,0,0,1,88.6,63.87ZM86,65.32l-.67.52A2,2,0,0,0,85,67.38a2.06,2.06,0,0,0,.77,1.13l.81-.12a2.77,2.77,0,0,1,.85-2.18A2.8,2.8,0,0,1,86,65.32Zm2.36,1a2.23,2.23,0,0,0-1,1,2.08,2.08,0,0,0-.2,1l2.07-.26A3.91,3.91,0,0,1,88.31,66.29Zm3,1.43a3,3,0,0,1,.93-2.47,3.74,3.74,0,0,1-2.17-2l-.53.2A3.16,3.16,0,0,0,90,67.94C90.45,67.88,90.89,67.81,91.33,67.72Zm4.08-1.15.29-.1a4.11,4.11,0,0,1,.37-3.18,3.84,3.84,0,0,1-2.34-1.71,3.11,3.11,0,0,0-.56,1.12A3.16,3.16,0,0,0,95.41,66.57Zm1-3.85a4,4,0,0,1,.32-3.49,4,4,0,0,1-2-.88l-.7.06a3.18,3.18,0,0,0,2.35,4.31Zm.24-4.6-.94.13a3.43,3.43,0,0,0,1.2.38A4.06,4.06,0,0,1,96.61,58.12Zm-2.09,8.76A4,4,0,0,1,93,65.47a2.33,2.33,0,0,0-1.06,2.13,18.22,18.22,0,0,0,1.93-.5Zm-8,1.51h0v0Zm4-5.55,0,0,.6,0-.51.16a3.13,3.13,0,0,0,2,1.63,3.91,3.91,0,0,1,.39-3.25,3.09,3.09,0,0,1-1.6-1.15,2.7,2.7,0,0,1-.3-.52A3.09,3.09,0,0,0,90.57,62.84Zm-3.11-1.47a2.65,2.65,0,0,1-.23-.48A3.48,3.48,0,0,1,87,59.7a21,21,0,0,0-8.13,2.51A20.3,20.3,0,0,1,87.46,61.37ZM87,59.46a3.43,3.43,0,0,1,.23-1.22,40.71,40.71,0,0,1-8.57-2,28.36,28.36,0,0,0-8.79,3.64,27.71,27.71,0,0,1,13.88-2,28.64,28.64,0,0,0-8.66,2.76A29.83,29.83,0,0,1,87,59.46Zm.69,2.23a21.61,21.61,0,0,0-6,2.38,20.75,20.75,0,0,1,7.4-1.25A3.74,3.74,0,0,1,87.67,61.69Zm-3.31,5.82a2.56,2.56,0,0,1,0-.78c-.82.84-1.54,1.77-2.49,2.83A12.65,12.65,0,0,1,85,68.64,2.58,2.58,0,0,1,84.36,67.51ZM98.45,82.8a.84.84,0,0,1-.84.09.79.79,0,0,1,.13.94,1.55,1.55,0,0,0,1-.76,1.26,1.26,0,0,0,0-1A.8.8,0,0,1,98.45,82.8ZM77.22,55.73c-.91-.36-1.81-.75-2.69-1.17A27.21,27.21,0,0,0,71.86,56,15.15,15.15,0,0,1,77.22,55.73Zm16.2,5.21a3.86,3.86,0,0,1-.07-2.49c-.62,0-1.23,0-1.85,0A2.41,2.41,0,0,0,93.42,60.94ZM91,59.22a3,3,0,0,1-.08-.73c-.42,0-.85,0-1.28-.05A1.89,1.89,0,0,0,91,59.22Zm-3.17,1.45a2.89,2.89,0,0,0,.52.83l.16,0-.12,0a3.11,3.11,0,0,0,1.49.88,3.71,3.71,0,0,1,.58-2.69,2.61,2.61,0,0,1-1.57-1.34l-1-.09a2.86,2.86,0,0,0-.27,1.22l.76.08-.76,0A2.9,2.9,0,0,0,87.79,60.67Z" style="fill:#0fbca3"/>    
    </g>
    <g id="phoenix-wings">
        <path id="phoenix-wing-right" d="M132.93,46.64a4.69,4.69,0,0,1-2.62-2.21,4.46,4.46,0,0,0,6.59.66,5.17,5.17,0,0,1-3.3-1.41,5,5,0,0,0,7.54-2.08,5.39,5.39,0,0,1-4.46-.6,5.2,5.2,0,0,0,7-2.69,5.45,5.45,0,0,1-5.07-.28,5.19,5.19,0,0,0,5.36-.77,4.94,4.94,0,0,0,1.26-1.64,5.44,5.44,0,0,1-4.11-.85c2.27,1.23,5.8.34,6.88-2.13a13.78,13.78,0,0,1-5.09-.46c2.7.37,7,.44,8.19-2.64a8.16,8.16,0,0,1-5-1.2c3.24,1.74,8.65.68,10.35-2.82a7.59,7.59,0,0,1-6.59-.22,7.8,7.8,0,0,0,6.9-.59h0A6.1,6.1,0,0,0,160,20.52a7.64,7.64,0,0,1-6.86,1.88,7.41,7.41,0,0,0,8.33-6.75,7.07,7.07,0,0,1-5.41,3.74,6.82,6.82,0,0,0,5.19-8.13,26,26,0,0,1-2.59,2.86,18.24,18.24,0,0,1-1.2,2.22,6.34,6.34,0,0,0,2.64-1.45,6.87,6.87,0,0,1-3.27,2.42c-.6.86-1.29,1.76-2.09,2.71q-.21.26-.45.51a6.15,6.15,0,0,0,4.62-.82,6.6,6.6,0,0,1-5.33,1.48c-.79.67-1.62,1.3-2.47,1.89a6.9,6.9,0,0,0,6,.4,7.32,7.32,0,0,1-6.72.15l-.28.2c-1,.68-2.05,1.4-3.08,2.2a7.56,7.56,0,0,0,6.4,1.36,7.94,7.94,0,0,1-7.1-.81,23.78,23.78,0,0,0-2.64,2.48,9,9,0,0,0,4.91,1.42,9.3,9.3,0,0,1-5.45-.8,16.85,16.85,0,0,0-1.27,1.74c-.28.44-.54.9-.8,1.37A7.24,7.24,0,0,0,146,34a7.52,7.52,0,0,1-5.26-.48l-.37.71c-.3.58-.6,1.16-.92,1.74a5.65,5.65,0,0,0,4.35.74,6.07,6.07,0,0,1-4.75,0c-.18.31-.37.61-.57.91-.39.57-.8,1.11-1.22,1.62a7.83,7.83,0,0,0,4.87.4,8.07,8.07,0,0,1-5.44.24,16.94,16.94,0,0,1-2,1.92,6.07,6.07,0,0,0,5.12,1.13,6.45,6.45,0,0,1-5.82-.6,12.79,12.79,0,0,1-2.12,1.22,5.8,5.8,0,0,0,3.66,1.82,6.2,6.2,0,0,1-4.54-1.48l-.29.09a15.57,15.57,0,0,1-2.95.59h0a6.63,6.63,0,0,0,3,1.66,6.76,6.76,0,0,1-3.9-1.59h-1.12A7.36,7.36,0,0,0,132.93,46.64Zm35.3-27a10.47,10.47,0,0,1-8.72,4.86,10.09,10.09,0,0,0,8.6-7v0a9.08,9.08,0,0,0,.14-4.85,12.61,12.61,0,0,1-6.32,7,11.39,11.39,0,0,0,5.56-12,13.17,13.17,0,0,1-4.26,6.42A12.6,12.6,0,0,0,165.82,0a24.91,24.91,0,0,1-3.69,10,16,16,0,0,1,.39,1.66A13.7,13.7,0,0,0,165.72,7c-.09.36-.19.73-.31,1.1h0a13.78,13.78,0,0,1-2.76,4.83,6,6,0,0,1,0,1.27,8.78,8.78,0,0,1-.33,2.79c.43-.36.82-.76,1.3-1.19l.13-.12a14.89,14.89,0,0,0,2.34-2.74,14.79,14.79,0,0,1-4.23,5.49,6.21,6.21,0,0,1-.54,1.17,5,5,0,0,1-.45,1.74,8.47,8.47,0,0,0,6-3.79,10.59,10.59,0,0,1-3,3.3l-.06.05-.07,0a11.52,11.52,0,0,1-3.45,1.5,11.85,11.85,0,0,1-2.27,2.67,5.69,5.69,0,0,1-.88,1.53A8.28,8.28,0,0,0,165,25a9.85,9.85,0,0,1-4.34,2.45l-.09,0-.09,0a10.49,10.49,0,0,1-4.25,0,7.84,7.84,0,0,1-3.77,1.91,4.86,4.86,0,0,1-2.35,2.6,16.31,16.31,0,0,0,11.95-.62,16.6,16.6,0,0,1-5.55,1.93c.44-.06-.44.09,0,0a16.74,16.74,0,0,1-7.35-.35,8.06,8.06,0,0,1-2.55,2.56A5.71,5.71,0,0,1,145.56,37a20.49,20.49,0,0,0,13.7.66A22.4,22.4,0,0,1,152.94,39h0a22,22,0,0,1-8-.93,5.92,5.92,0,0,1-3.43,3.38,20.65,20.65,0,0,0,14,1.88,23.5,23.5,0,0,1-7.41,1h-.27a23.47,23.47,0,0,1-6.32-1.25,5.83,5.83,0,0,1-3.74,2l.11.12,0,0a18.32,18.32,0,0,0,12.15,3.32,18.52,18.52,0,0,1-10.94-1.32h0a17.76,17.76,0,0,1-1.84-.95,8.19,8.19,0,0,1-3.17,1.28,7,7,0,0,1-2.17.44,17.89,17.89,0,0,0,9.48,5c-3.89,0-8-2.17-10.83-4.78l-.31-.3a8.68,8.68,0,0,1-4.88-2.74,21.28,21.28,0,0,1,.1,2.15c1.46,3,3.31,5.91,6.42,7.38-2.84-1-4.85-3.19-6.49-5.63a17.73,17.73,0,0,1-.44,2.8,6,6,0,0,0,4.71,3.92,17.69,17.69,0,0,0,7.32-.42,13,13,0,0,1-8.79-7c3.65,6.42,12.89,8.4,18.73,3.83h-.18c-4.32.06-8.29-2-11.59-4.62,3.37,2.31,7.36,4.05,11.54,3.65,3.08-.29,6.78-2.14,8.46-5l-.16.06c-4.75,1.63-9.86.56-14.4-1.23,4.28,1.33,9,2.07,13.32.5,2.64-.95,5.6-2.95,6.82-5.63a16.56,16.56,0,0,1-1.63.82c-4.47,1.91-9.49,1.36-14.09.22,4.35.77,9,1,13.14-.83,3.12-1.43,6.12-4.24,7-7.64a16.75,16.75,0,0,1-1.78,1.36c-4.12,2.74-9.29,3-13.95,1.72,4.6.9,9.66.39,13.45-2.58,2.12-1.65,4.3-4.31,4.59-7.09a10.09,10.09,0,0,1-2,2c-3,2.21-6.8,2.57-10.38,2.45,3.36-.18,7-.75,9.65-3A9.81,9.81,0,0,0,168.23,19.66ZM137.41,36.85a29.71,29.71,0,0,0,1.81-3.21c.5-1,1-1.95,1.6-2.89,2.31-3.63,5.63-5.93,8.56-7.95a23.45,23.45,0,0,0,4.44-3.57A35.64,35.64,0,0,0,156,16.38c-1,.76-2.08,1.51-3.25,2.25-2.81,1.8-5.88,3.16-8.7,4.95a16.89,16.89,0,0,0-6.73,7.31c-.88,2.08-1.3,4.5-2.35,6.5A14.45,14.45,0,0,1,129.33,43c.3-.07.61-.15.91-.24C132.76,42,135.37,39.84,137.41,36.85ZM124.85,52.44A9,9,0,0,1,123.62,55a19.57,19.57,0,0,0,4.82,1.32A6.4,6.4,0,0,1,124.85,52.44ZM163.6,15.75l.09-.09Z" style="fill:#0fbca3"/>
        <path id="phoenix-wing-left" d="M76.2,24c1.17.34,2.4.69,3.59,1.08,4.26,1.4,7.15,3.15,9.13,5.52a26.64,26.64,0,0,1,2,3,24.47,24.47,0,0,0,1.76,2.66,12.15,12.15,0,0,0,4.89,3.64,31.55,31.55,0,0,1-4.09-7.32c-1.33-2.9-2.85-5.86-5.42-7.77-3.93-2.92-9.26-2.63-14.12-3.29a39.12,39.12,0,0,1-8.51-2.18,23.35,23.35,0,0,0,4.42,2.54A47.15,47.15,0,0,0,76.2,24Zm31.09,19.36a5.09,5.09,0,0,1-1.2,3.18,9.67,9.67,0,0,1-6.4,8.24A9.12,9.12,0,0,0,105,47.46a8.71,8.71,0,0,1-6.65,1.18h-.12c-3.19,3.41-7.08,6.56-12,6,4.63.2,8.07-2.85,10.87-6.23a14.8,14.8,0,0,1-2-1.12,7.33,7.33,0,0,1-2.42-1.08,20.73,20.73,0,0,1-15.58,5.16A20.15,20.15,0,0,0,91.9,45.53a8.21,8.21,0,0,1-1.31-1.39,4.93,4.93,0,0,1-2.61-2l-.16-.08a21.09,21.09,0,0,1-16.3,4.14A20.47,20.47,0,0,0,86.8,41.47a6.78,6.78,0,0,1-1.89-2.18,5.7,5.7,0,0,1-2.18-1.6,24.26,24.26,0,0,1-17.85,3.25A23.75,23.75,0,0,0,82,36.81a7.94,7.94,0,0,1-3.67-1.87A11.14,11.14,0,0,1,75,33.69,23,23,0,0,1,60.77,35,22.39,22.39,0,0,0,73.89,33L73.8,33a19.36,19.36,0,0,1-6.51-2.55,20,20,0,0,1-13.17-1.78,19.37,19.37,0,0,0,12,1,9.73,9.73,0,0,1-4.89-3.32,6.2,6.2,0,0,1-.94-.52,14.34,14.34,0,0,1-9.18-2.6,13.82,13.82,0,0,0,8,1.76,19.34,19.34,0,0,1-3.71-4.06h0a20.61,20.61,0,0,1-7.66-4.8,19.94,19.94,0,0,0,7.13,3.71,7.48,7.48,0,0,1-2-4.57H53a17.51,17.51,0,0,1-6.46-6.13,16.82,16.82,0,0,0,5.83,4.76,11.45,11.45,0,0,1-1.28-3.64A50.59,50.59,0,0,1,44,1.94c-.39,1-.46,3.1-.13,5.9a13.19,13.19,0,0,0,8.93,9,13.75,13.75,0,0,1-8.1-5c.45,5.91,5.66,10.63,11.56,11.09a13.39,13.39,0,0,1-9.17-3.57c1.92,6,8.85,9.59,15,8.6a15,15,0,0,1-12.88-3.09c3.52,6.7,12,9.83,19.25,7.37a17,17,0,0,1-16.47-2.09,9.59,9.59,0,0,0,3.85,5.23h0v0A16.65,16.65,0,0,0,61.88,38c5.16,1.14,10.36-.09,15.29-1.63C72,38.3,66.52,39.85,61,38.73a17.66,17.66,0,0,1-4.06-1.37A11.72,11.72,0,0,0,60,40.82l0,0c0,.06.07.1.1.15,6.26,4.52,16.52,2.59,23.11-.6-5,2.78-10.73,4.83-16.57,4.1a18.36,18.36,0,0,1-4.77-1.26c6.79,7.25,19,7.7,26.88,1.79a21.9,21.9,0,0,1-20.34,3.86,16.44,16.44,0,0,0,6.88,3.74.35.35,0,0,0,0-.08l.22.15a21.23,21.23,0,0,0,18.67-4.35A21.51,21.51,0,0,1,78.12,54.1c7.81,3.84,18.12,2.77,23.46-4.71a16.65,16.65,0,0,1-10.71,7.42c4.34.26,8.86-.3,12.53-2.56a10.76,10.76,0,0,0,4.64-6.2A8.33,8.33,0,0,0,107.29,43.31ZM62,19.76a11.19,11.19,0,0,1-7.74-3.44c.93,5.46,8.26,7.18,12.89,6.8a16.64,16.64,0,0,1-9.67-1.41A13,13,0,0,0,73.34,25.4a13.57,13.57,0,0,1-10.42,1.08C67,31,74.44,29.91,79.5,27.8A21.79,21.79,0,0,1,69,30.15a13.91,13.91,0,0,0,14.66-.67,14.83,14.83,0,0,1-8.38,3.06c3.52,2.25,8.49,1.87,12-.3a12.65,12.65,0,0,1-7.38,2.44,7.81,7.81,0,0,0,9.26.52A8.51,8.51,0,0,1,83.7,37,7.29,7.29,0,0,0,92,38.56a8,8,0,0,1-5.55,1c1.79,2.53,5.82,2.4,8.51,1.49a10.47,10.47,0,0,1-5.51,1c1,1.9,7,1.7,8.81.38a7.57,7.57,0,0,1-6.07,1.89,5.75,5.75,0,0,0,8.81-.56,5.88,5.88,0,0,1-4.49,2.92c.15.09.31.17.47.25a5.23,5.23,0,0,0,7-2.5,5.43,5.43,0,0,1-3.29,3.36,7.68,7.68,0,0,0,4.57-1.27A4.3,4.3,0,0,0,107,43a6,6,0,0,1-.81.28,5.5,5.5,0,0,1-2.42,3.52,5.2,5.2,0,0,0,1.73-3.38,6.6,6.6,0,0,1-2.08,0,6.25,6.25,0,0,1-4.49,3.81,5.88,5.88,0,0,0,3.79-3.95,8.82,8.82,0,0,1-1.73-.66,8.33,8.33,0,0,1-6.17,2.73,7.94,7.94,0,0,0,5.54-3.08c-.23-.14-.47-.28-.69-.44a14.72,14.72,0,0,1-2.06-.6,7.43,7.43,0,0,1-5.76,1.45,7.13,7.13,0,0,0,5-1.75,14.36,14.36,0,0,1-2.21-1.21,13.83,13.83,0,0,1-5.86.51,13.35,13.35,0,0,0,5.19-1A12.9,12.9,0,0,1,91.76,37l-.13-.18a7.83,7.83,0,0,1-5.28.86,7.51,7.51,0,0,0,4.84-1.45c-.46-.66-.88-1.35-1.28-2l-.28-.47a10.38,10.38,0,0,1-6.87,1.31,9.92,9.92,0,0,0,6.46-2A15.36,15.36,0,0,0,88,31.35a11.88,11.88,0,0,0-1.15-1.2,14.48,14.48,0,0,1-8.57,2.76,14.12,14.12,0,0,0,7.9-3.32,17.12,17.12,0,0,0-3-1.87A16.74,16.74,0,0,1,73,31a16.21,16.21,0,0,0,9.36-3.63,30.11,30.11,0,0,0-2.91-1.12l-1.35-.41a21.27,21.27,0,0,1-9.93,2.07,20.8,20.8,0,0,0,8.76-2.41l-1-.3c-1.28-.36-2.58-.73-3.86-1.17a14.79,14.79,0,0,1-10.14.08,14.38,14.38,0,0,0,8.91-.51c-.46-.18-.92-.36-1.38-.56A22.92,22.92,0,0,1,67,21.76a13,13,0,0,1-8.9-1.7,12.48,12.48,0,0,0,7.84,1A24.62,24.62,0,0,1,63,18.86,16.75,16.75,0,0,1,56.3,16a16.62,16.62,0,0,0,5.61,1.89l-.31-.3a44.77,44.77,0,0,1-9-6.1A10.85,10.85,0,0,0,62,19.76Z" style="fill:#0fbca3"/>
    </g>
    <g id="phoenix-tail">
        <path id="phoenix-tail-left" d="M14.85,117.39a1.79,1.79,0,0,0-1.67,3.17h0a1.79,1.79,0,0,0,1.65-3.18Zm15.6-23.31a59.8,59.8,0,0,1,6.78-14.37c-2.14,1.92-4.33,3.88-6.62,5.72-1.07.86-2.13,1.65-3.2,2.38a82.64,82.64,0,0,0-11,25.6c.11,3.52,1.42,4.46.7,6.92a3.34,3.34,0,1,1-6.41-1.87c.75-2.6,2.56-2.54,4.68-6a83.57,83.57,0,0,1,9.61-23c-1.15.69-2.3,1.31-3.44,1.86a1,1,0,0,1,.58.67,1.26,1.26,0,0,1-.88,1.28,9.3,9.3,0,0,1-1.66.29A5.82,5.82,0,0,0,16,95.66c-1.38,2-6,9-5.83,12.7,0,.15,0,.3,0,.45a7.77,7.77,0,0,1,3-2.64,2.06,2.06,0,0,1,1.7-.22,1.47,1.47,0,0,1,.63,1.84,2.61,2.61,0,0,1-1.53,1.4,18.65,18.65,0,0,1-2.07.57A10.07,10.07,0,0,0,4.65,118a6.83,6.83,0,0,1,6-4.18,9.49,9.49,0,0,0-4.11,3.06,6.37,6.37,0,0,0-1.21,4.89c.4,2.09,2,3.71,3.13,5.49A15.92,15.92,0,0,1,11,135.81a51.19,51.19,0,0,1,6.7-6.63,14.59,14.59,0,0,0,3.68-3.8,6.4,6.4,0,0,0,.69-4.31,6.51,6.51,0,0,0-2.1-3.89A6.69,6.69,0,0,1,23,123.87a9.53,9.53,0,0,0-.11-6.93,49.94,49.94,0,0,0-3.18-6.33,3.68,3.68,0,0,1-.56-1.71,1.34,1.34,0,0,1,1-1.36c.69-.12,1.28.5,1.65,1.1A9.16,9.16,0,0,1,23,112.47q1.62-4.6,2.82-9.34c.58-2.32,1.06-4.86,0-7a7.54,7.54,0,0,1-.55-1.19,1.32,1.32,0,0,1,.22-1.24,1.17,1.17,0,0,1,1.24-.2,2.24,2.24,0,0,1,1,.85,5,5,0,0,1,1,3.69C29.22,96.71,29.81,95.38,30.45,94.08Zm18.24-29c7.05-4.93,16.82-8.7,24.92-10.9-5.75.61-12.55,2.68-19.16,4.76a53.12,53.12,0,0,1,17.22-5.58l-.7-.47c-.8-.55-1.62-1.07-2.44-1.59-.81-.15-1.61-.27-2.42-.36-4.23-.45-8.22.36-12.4.74-3.18.29-6.62,0-9.17-2.08,2.38,2.47,5.91,3.1,9.21,3.17,4.11.09,8.07-.29,12.13.62-1.7.29-3.32.85-5,1A43.62,43.62,0,0,0,47,58.21c-5,2.18-12.3,5.39-16.53.06,5.08,7.48,15.49,1.29,21.9-.17C43.09,62.71,29.19,73,19.73,63c8.23,9.93,22.14,2.48,31.18-1.76-9.3,6.08-17.66,14-28.11,18.12-5,2-10.91,2.82-15.91.39A11.87,11.87,0,0,1,0,69.36c0,.31,0,.65,0,1v0C.42,79.18,10,82.92,17.56,81.93,26.54,80.77,35.19,75,42.5,70,31.85,79.54,21.87,94,5.75,92.54c8.91,1.24,17.1-2.84,23.89-8.31,7.89-6.36,14.52-13.91,23.49-18.87a57,57,0,0,0-23.68,41C32.76,85.43,50.39,64.29,70.72,58.3c1.44-.6,3.53-1,5.71-1.75C69.71,56.85,55.67,60.65,48.69,65.07ZM21.93,86.57a62.66,62.66,0,0,0,9.26-7.69c-1.39.72-2.81,1.4-4.27,2A64.15,64.15,0,0,0,21.93,86.57ZM0,70.36v0C0,70.49,0,70.73,0,70.36Z" style="fill:#0fbca3"/>
        <path id="phoenix-tail-middle" d="M61,159.93c.37-2.72.81-5.67-.51-8.07a6.24,6.24,0,0,0-6.81-3,8.17,8.17,0,0,1,8.05,1.48,9.24,9.24,0,0,0-9.12-4.32,9.76,9.76,0,0,1-2.34.26A2,2,0,0,1,48.49,145c-.32-1.1.89-2.17,2-2.18a5.73,5.73,0,0,1,3.12,1.34,21,21,0,0,0-10.79-11.56c-.76-.34-1.7-.91-1.52-1.72s1.42-.94,2.26-.66a8.7,8.7,0,0,1,3.51,2.19c-.84-3.6-2-6.86-2.83-10.46-.57-2.47-1.32-5.19-3.45-6.56-1-.66-2.45-1.15-2.61-2.36a1.86,1.86,0,0,1,1.94-1.88,3,3,0,0,1,2.4,1.71,8.86,8.86,0,0,1,.77,3c0-1.45.09-2.89.15-4.33A36.66,36.66,0,0,1,42.33,104a42.81,42.81,0,0,1,5.53-22.52,56.41,56.41,0,0,0-9.07,19.87,57.67,57.67,0,0,0,9.85,47c2.85,2.37,4.46,1.93,5.88,4.13a3.34,3.34,0,0,1-5.59,3.64c-1.44-2.24-.29-3.56-1.44-7.29a59,59,0,0,1-9.44-20A56.91,56.91,0,0,1,50.34,76.41a61.78,61.78,0,0,1,5.13-5.23c.29-.31.6-.61.9-.92a60,60,0,0,1,11.94-9.15,48,48,0,0,0-11.53,5.65,1.35,1.35,0,0,1,.26,1.1c-.24,1-1.47,1.17-2.44,1.31a13,13,0,0,0-1.67.37,59.91,59.91,0,0,0-9,8.87c.74-.31,1.88-.46,2.28.19A1.17,1.17,0,0,1,45.92,80a3.94,3.94,0,0,1-1.32.72,13.64,13.64,0,0,0-4.81,3.38,61.88,61.88,0,0,0-4,7.2,18.21,18.21,0,0,0-.48,2.31c.1-.84,1.82-2.25,2.89-1.37a1.77,1.77,0,0,1,.38,2.14,7,7,0,0,1-1.54,2,22.8,22.8,0,0,0-5.62,20.44,6.31,6.31,0,0,1,1.1-3.67c.67-.81,2.23-.85,2.62.13s-.39,1.73-1,2.45c-2.29,2.76-3,6.57-2.64,10.13a41.18,41.18,0,0,0,2.84,10.33,4.94,4.94,0,0,1,.69-3.47c.59-.76,1.89-1,2.44-.27a2.49,2.49,0,0,1-.06,2.16,16.84,16.84,0,0,0,5.33,17.91,3.8,3.8,0,0,1-.65-2.68c.13-.94,1.13-1.8,2-1.46a1.77,1.77,0,0,1,.85,2.11,7.9,7.9,0,0,1-1.16,2.18,9.66,9.66,0,0,0,.62,10.68,10.58,10.58,0,0,1,.22-7.9,7.09,7.09,0,0,0,2.56,7.88,13.44,13.44,0,0,0,5,1.85c3,.65,6.59.59,9.84,2.77C60.43,165.68,60.66,162.65,61,159.93Zm-8.11-5.06a1.8,1.8,0,0,0-3.19-1.65h0a1.8,1.8,0,1,0,3.19,1.65Z" style="fill:#0fbca3"/>
        <path id="phoenix-tail-right" d="M66.68,67.13l-.1.13Zm18.17,2.6a10.2,10.2,0,0,0-4.64,2.15,7.86,7.86,0,0,0,0,7.43A6.16,6.16,0,0,0,87,82.09a5.68,5.68,0,0,1-5.85-2.9c-1.31-2.51-.3-5.44,1.43-7.46A12.27,12.27,0,0,1,84.85,69.73Zm-9.41,53.56a1.8,1.8,0,0,0-3.19-1.65h0a1.8,1.8,0,0,0,3.2,1.65ZM45.23,102.16c.6-12.69,8.89-25.42,18.81-33-5.89,7.95-8.26,19.91-5.31,29.23-2.37-10.42,2.66-23.45,10.21-31C61.78,75.56,57.71,90.52,63.43,100c5.5,9.15,17.92,9.11,26.17,4-8.35,4.59-20.78,4.1-25.3-5.57C59.37,88,66,72.59,75.2,66c-3.38,3.21-6.54,8-8,15.69-1.1,5.61-.07,11.72,4,15.87a16.59,16.59,0,0,1-2.25-16.22A16.45,16.45,0,0,0,81.38,96.08,15.64,15.64,0,0,1,71,84a15,15,0,0,1,0-5.31c.62-3.39,4.47-7.87,7.16-9.83-3.9,6.52-2.88,14,1.46,18.17-5.75-9.24.65-20.86,7.38-23.44a13.54,13.54,0,0,0-4.66,1.1A25.66,25.66,0,0,0,70.52,75.19c.22-.45.42-.92.66-1.36,0,0,0,0,0,0s0-.06,0,0c2.36-4.16,7.23-9.54,12.75-11.57a23.37,23.37,0,0,0-5,.83,22.8,22.8,0,0,0-7.78,4c2.12-2.1,7.59-5.52,10.18-6.79a13.58,13.58,0,0,0-4.53.82A26.79,26.79,0,0,0,66.2,67.73l.38-.47.1-.13c2.26-2.95,6.84-7.32,11.71-9a12.61,12.61,0,0,0-5.13,1.41,73.69,73.69,0,0,0-15.8,11.79C48.88,79.9,43.32,91.7,43.87,104a37.39,37.39,0,0,0,13.81,26.92C49.59,123.54,44.7,113.21,45.23,102.16ZM86.4,123.23a30.18,30.18,0,0,0-3.06-4.71,9.32,9.32,0,0,0-10.52-2,4.09,4.09,0,0,1,3-1.89,10.88,10.88,0,0,1,3.46.13,5.63,5.63,0,0,0-5.17-.8,29.47,29.47,0,0,0-5,2.26,3.64,3.64,0,0,1-1.4.44,1.35,1.35,0,0,1-1.25-.64,1.4,1.4,0,0,1,.88-1.77,4.11,4.11,0,0,1,2.2,0,45.57,45.57,0,0,1-4.67-3,20.86,20.86,0,0,0-5.87-2.94,8,8,0,0,1-1.67-.47,1.47,1.47,0,0,1-.9-1.37,1.39,1.39,0,0,1,1.62-1,4,4,0,0,1,1.86,1,16,16,0,0,0-5-10,2,2,0,0,1-.76-1.1,1.11,1.11,0,0,1,1.13-1.1,1.52,1.52,0,0,1,.91.34,33.57,33.57,0,0,1,.84-15.9,34.33,34.33,0,0,0-2.57,5.74,30.71,30.71,0,0,0,1.05,23A23.38,23.38,0,0,0,68.1,119.58c3.9.41,5-.94,7.43.06l.15.06A3.34,3.34,0,0,1,73,125.83c-2.42-1-2.27-2.68-5.17-5a24.48,24.48,0,0,1-13.42-12.74,31.93,31.93,0,0,1-1.1-24c.32-.94.69-1.87,1.1-2.8a40.64,40.64,0,0,0-6.09,12.08,1.42,1.42,0,0,1,.29-.1,1.24,1.24,0,0,1,1.51.78c.1.6-.41,1.1-.83,1.54-2.21,2.34-2.78,5.86-2.24,9s2,5.83,3.46,8.69a6.5,6.5,0,0,1,.12-4.31c.3-.75,1-1.56,1.78-1.25a1.24,1.24,0,0,1,.63,1.3,5.58,5.58,0,0,1-.49,1.46,8.19,8.19,0,0,0,.21,6,14.36,14.36,0,0,0,3.56,4.93,23.33,23.33,0,0,0,6.76,4.18,5.57,5.57,0,0,1-2.11-3.3c-.13-.67-.07-1.51.53-1.83s1.58.28,2.07,1a33.28,33.28,0,0,1,2.67,5.34,10.52,10.52,0,0,0,3.65,4.59,5.5,5.5,0,0,1-1.56-5.46,7.12,7.12,0,0,0,7.6,6.08c2.62-.22,4.88-1.83,7.13-3.2s4.92-2.64,7.46-1.93A7.8,7.8,0,0,1,86.4,123.23Z" style="fill:#0fbca3"/>
    </g>
</g>
</svg>
